<svg version="1.1" id="Layer_1" xmlns="http://www.w3.org/2000/svg" xmlns:xlink="http://www.w3.org/1999/xlink" x="0px" y="0px"
	 width="100%" viewBox="0 0 500 500" enable-background="new 0 0 500 500" xml:space="preserve">
<path fill="#FFFFFD" opacity="1.000000" stroke="none" 
	d="
M269.000000,501.000000 
	C179.333359,501.000000 90.166710,501.000000 1.000048,501.000000 
	C1.000032,334.333405 1.000032,167.666794 1.000016,1.000137 
	C167.666565,1.000092 334.333130,1.000092 500.999756,1.000046 
	C500.999847,167.666519 500.999847,334.333038 500.999939,500.999786 
	C423.833344,501.000000 346.666656,501.000000 269.000000,501.000000 
M323.087128,409.419617 
	C341.962860,423.001099 360.741455,436.720917 379.770782,450.083710 
	C385.850769,454.353241 392.410828,458.056274 399.098358,461.303589 
	C403.818573,463.595642 409.528137,461.189606 412.669769,456.748444 
	C415.838837,452.268433 412.928680,448.809235 410.480835,445.538635 
	C408.705688,443.166901 406.529816,440.931458 404.114166,439.228973 
	C387.144531,427.269257 370.445862,414.862946 352.912231,403.783722 
	C336.515625,393.422974 319.180023,384.550964 302.324951,374.906158 
	C301.319183,374.330627 300.910706,372.711365 300.224304,371.577789 
	C301.368286,371.272675 302.544800,370.614441 303.651245,370.716461 
	C316.366272,371.888580 329.065521,373.231964 341.780060,374.409698 
	C348.227020,375.006897 354.689728,375.542999 361.157349,375.783539 
	C371.804138,376.179413 382.475006,376.697388 393.103577,376.301392 
	C395.958191,376.195007 398.696594,372.969452 401.488342,371.175751 
	C398.948151,368.542786 396.564484,365.723846 393.780518,363.380463 
	C392.841431,362.590027 390.887512,362.895660 389.396667,362.890015 
	C384.063904,362.869720 378.727875,362.826721 373.398438,362.979492 
	C352.276337,363.584778 331.158173,364.335846 310.034271,364.862183 
	C304.216797,365.007172 303.517212,363.666382 306.461243,358.949585 
	C318.806641,339.170074 324.095428,317.416504 324.126221,294.338837 
	C324.226135,219.507721 324.165588,144.676361 324.130981,69.845108 
	C324.129547,66.717636 324.071716,64.207733 328.064056,62.996460 
	C334.928589,60.913757 337.906830,55.860111 337.010101,49.362709 
	C336.250061,43.855492 330.958984,39.363941 324.434784,39.340405 
	C295.435974,39.235783 266.436340,39.219025 237.437653,39.337364 
	C230.285858,39.366550 225.385010,44.098679 224.617432,50.909409 
	C224.032898,56.095997 228.024506,61.527557 234.326935,63.085098 
	C238.059814,64.007614 238.862335,65.874481 238.841766,69.385933 
	C238.708923,92.051201 238.775208,114.717621 238.774506,137.383667 
	C238.772934,188.382263 238.802216,239.380890 238.750565,290.379425 
	C238.733170,307.557251 229.747513,320.693726 213.851334,327.193359 
	C199.585892,333.026184 182.562836,329.246063 171.206009,317.599579 
	C163.340103,309.533081 160.177094,299.616241 160.177231,288.530243 
	C160.178085,219.698807 160.177734,150.867355 160.177277,82.035919 
	C160.177246,77.369385 160.258698,72.700676 160.139801,68.037117 
	C160.066193,65.149338 161.239136,64.285599 164.100967,63.584984 
	C167.609558,62.726032 171.419052,61.135471 173.938354,58.673901 
	C177.379242,55.311905 177.578949,50.712330 175.219421,46.176197 
	C172.702621,41.337677 168.728317,39.279869 163.445465,39.281334 
	C134.779587,39.289284 106.113594,39.253040 77.448074,39.353725 
	C75.198212,39.361629 72.754105,39.898109 70.743889,40.887253 
	C66.315308,43.066372 64.296402,46.967731 64.312157,51.886761 
	C64.326912,56.491066 66.417450,60.456432 70.501801,61.904785 
	C75.092140,63.532566 75.397995,66.318253 75.393929,70.290222 
	C75.318840,143.621460 75.366379,216.952820 75.319412,290.284119 
	C75.310425,304.325378 76.726357,318.097992 80.898766,331.593964 
	C90.017303,361.088593 107.853943,383.626495 134.421555,399.207642 
	C155.897644,411.802734 179.324158,415.494385 203.967224,415.198181 
	C229.948486,414.885895 253.526123,408.039764 274.664337,393.041229 
	C277.919312,390.731659 280.171173,387.040222 283.322662,384.536255 
	C284.479919,383.616730 287.454651,383.501190 288.656586,384.352051 
	C300.047913,392.415924 311.235748,400.767303 323.087128,409.419617 
M426.775360,397.425018 
	C430.015686,396.231323 433.450623,395.392670 436.445679,393.751373 
	C439.956635,391.827332 439.592072,388.316956 435.908997,386.656738 
	C434.426086,385.988220 432.699066,385.525146 431.085815,385.532837 
	C410.958038,385.628632 390.829468,385.750427 370.704712,386.084717 
	C367.664246,386.135162 364.642273,387.299835 361.611725,387.949127 
	C361.658539,388.503815 361.705322,389.058472 361.752106,389.613129 
	C382.718689,395.338989 404.063416,398.268921 426.775360,397.425018 
M401.260284,418.246246 
	C407.555817,424.600372 413.729675,431.082245 420.204437,437.248169 
	C422.943939,439.856995 426.381287,441.512421 429.928497,438.199890 
	C433.515869,434.849915 433.135376,431.147125 430.451080,427.527435 
	C429.197632,425.837189 427.793640,423.996338 426.021973,422.995453 
	C415.089905,416.819611 404.045898,410.840912 392.993622,404.880951 
	C392.162506,404.432770 390.978088,404.639832 389.957886,404.542328 
	C389.755859,404.873505 389.553802,405.204681 389.351776,405.535858 
	C393.156311,409.604340 396.960876,413.672821 401.260284,418.246246 
z"/>
<path fill="#FFD704" opacity="1.000000" stroke="none" 
	d="
M322.784637,409.227783 
	C311.235748,400.767303 300.047913,392.415924 288.656586,384.352051 
	C287.454651,383.501190 284.479919,383.616730 283.322662,384.536255 
	C280.171173,387.040222 277.919312,390.731659 274.664337,393.041229 
	C253.526123,408.039764 229.948486,414.885895 203.967224,415.198181 
	C179.324158,415.494385 155.897644,411.802734 134.421555,399.207642 
	C107.853943,383.626495 90.017303,361.088593 80.898766,331.593964 
	C76.726357,318.097992 75.310425,304.325378 75.319412,290.284119 
	C75.366379,216.952820 75.318840,143.621460 75.393929,70.290222 
	C75.397995,66.318253 75.092140,63.532566 70.501801,61.904785 
	C66.417450,60.456432 64.326912,56.491066 64.312157,51.886761 
	C64.296402,46.967731 66.315308,43.066372 70.743889,40.887253 
	C72.754105,39.898109 75.198212,39.361629 77.448074,39.353725 
	C106.113594,39.253040 134.779587,39.289284 163.445465,39.281334 
	C168.728317,39.279869 172.702621,41.337677 175.219421,46.176197 
	C177.578949,50.712330 177.379242,55.311905 173.938354,58.673901 
	C171.419052,61.135471 167.609558,62.726032 164.100967,63.584984 
	C161.239136,64.285599 160.066193,65.149338 160.139801,68.037117 
	C160.258698,72.700676 160.177246,77.369385 160.177277,82.035919 
	C160.177734,150.867355 160.178085,219.698807 160.177231,288.530243 
	C160.177094,299.616241 163.340103,309.533081 171.206009,317.599579 
	C182.562836,329.246063 199.585892,333.026184 213.851334,327.193359 
	C229.747513,320.693726 238.733170,307.557251 238.750565,290.379425 
	C238.802216,239.380890 238.772934,188.382263 238.774506,137.383667 
	C238.775208,114.717621 238.708923,92.051201 238.841766,69.385933 
	C238.862335,65.874481 238.059814,64.007614 234.326935,63.085098 
	C228.024506,61.527557 224.032898,56.095997 224.617432,50.909409 
	C225.385010,44.098679 230.285858,39.366550 237.437653,39.337364 
	C266.436340,39.219025 295.435974,39.235783 324.434784,39.340405 
	C330.958984,39.363941 336.250061,43.855492 337.010101,49.362709 
	C337.906830,55.860111 334.928589,60.913757 328.064056,62.996460 
	C324.071716,64.207733 324.129547,66.717636 324.130981,69.845108 
	C324.165588,144.676361 324.226135,219.507721 324.126221,294.338837 
	C324.095428,317.416504 318.806641,339.170074 306.461243,358.949585 
	C303.517212,363.666382 304.216797,365.007172 310.034271,364.862183 
	C331.158173,364.335846 352.276337,363.584778 373.398438,362.979492 
	C378.727875,362.826721 384.063904,362.869720 389.396667,362.890015 
	C390.887512,362.895660 392.841431,362.590027 393.780518,363.380463 
	C396.564484,365.723846 398.948151,368.542786 401.488342,371.175720 
	C398.696594,372.969452 395.958191,376.195007 393.103577,376.301392 
	C382.475006,376.697388 371.804138,376.179413 361.157349,375.783539 
	C354.689728,375.542999 348.227020,375.006897 341.780060,374.409698 
	C329.065521,373.231964 316.366272,371.888580 303.651245,370.716461 
	C302.544800,370.614441 301.368286,371.272675 300.224304,371.577789 
	C300.910706,372.711365 301.319183,374.330627 302.324951,374.906158 
	C319.180023,384.550964 336.515625,393.422974 352.912231,403.783722 
	C370.445862,414.862946 387.144531,427.269257 404.114166,439.228973 
	C406.529816,440.931458 408.705688,443.166901 410.480835,445.538635 
	C412.928680,448.809235 415.838837,452.268433 412.669769,456.748444 
	C409.528137,461.189606 403.818573,463.595642 399.098358,461.303589 
	C392.410828,458.056274 385.850769,454.353241 379.770782,450.083710 
	C360.741455,436.720917 341.962860,423.001099 322.784637,409.227783 
z"/>
<path fill="#FFDA14" opacity="1.000000" stroke="none" 
	d="
M426.339539,397.479797 
	C404.063416,398.268921 382.718689,395.338989 361.752106,389.613129 
	C361.705322,389.058472 361.658539,388.503815 361.611725,387.949127 
	C364.642273,387.299835 367.664246,386.135162 370.704712,386.084717 
	C390.829468,385.750427 410.958038,385.628632 431.085815,385.532837 
	C432.699066,385.525146 434.426086,385.988220 435.908997,386.656738 
	C439.592072,388.316956 439.956635,391.827332 436.445679,393.751373 
	C433.450623,395.392670 430.015686,396.231323 426.339539,397.479797 
z"/>
<path fill="#FFDC20" opacity="1.000000" stroke="none" 
	d="
M401.012878,417.993774 
	C396.960876,413.672821 393.156311,409.604340 389.351776,405.535858 
	C389.553802,405.204681 389.755859,404.873505 389.957886,404.542328 
	C390.978088,404.639832 392.162506,404.432770 392.993622,404.880951 
	C404.045898,410.840912 415.089905,416.819611 426.021973,422.995453 
	C427.793640,423.996338 429.197632,425.837189 430.451080,427.527435 
	C433.135376,431.147125 433.515869,434.849915 429.928497,438.199890 
	C426.381287,441.512421 422.943939,439.856995 420.204437,437.248169 
	C413.729675,431.082245 407.555817,424.600372 401.012878,417.993774 
z"/>
</svg>