<svg width="29" height="29" viewBox="0 0 29 29" fill="none" xmlns="http://www.w3.org/2000/svg">
<circle cx="14.5" cy="14.5" r="14.5" fill="#2563EB"/>
<path d="M9.9375 23V8.45455H16.2159C17.2955 8.45455 18.2401 8.66761 19.0497 9.09375C19.8594 9.51989 20.4891 10.1188 20.9389 10.8906C21.3887 11.6624 21.6136 12.5644 21.6136 13.5966C21.6136 14.6383 21.3816 15.5402 20.9176 16.3026C20.4583 17.0649 19.812 17.652 18.9787 18.0639C18.1501 18.4759 17.1818 18.6818 16.0739 18.6818H12.3239V15.6136H15.2784C15.7424 15.6136 16.1378 15.5331 16.4645 15.3722C16.7959 15.2064 17.0492 14.9721 17.2244 14.669C17.4044 14.366 17.4943 14.0085 17.4943 13.5966C17.4943 13.1799 17.4044 12.8248 17.2244 12.5312C17.0492 12.233 16.7959 12.0057 16.4645 11.8494C16.1378 11.6884 15.7424 11.608 15.2784 11.608H13.8864V23H9.9375Z" fill="white"/>
</svg>
